# xmcd
#
# Track frame offsets: 
#        150
#        16320
#        33494
#        54362
#        68690
#        86887
#        100238
#        118433
#        133260
#        149728
#        159330
#        178868
#
# Disc length: 2552 seconds
#
# Revision: 0
# Processed by: cddbd v1.5.2PL0 Copyright (c) Steve Scherf et al.
# Submitted via: ExactAudioCopyFreeDBPlugin 1.0
#
DISCID=b009f60c
DTITLE=The Howard Way - Never Mind The Country
DYEAR=2010
DGENRE=Rock
TTITLE0=Runaway
TTITLE1=Time
TTITLE2=Clock Tower Square
TTITLE3=Don't Look Back
TTITLE4=Crazy Hearts
TTITLE5=Soft And Low
TTITLE6=Rainy Night In Georgia
TTITLE7=Border Music
TTITLE8=What's So Funny About Peace, Love And Understanding
TTITLE9=Close Up The Honkey Tonks
TTITLE10=Traces Of Betrayal
TTITLE11=Twilight Waiting
EXTD=
EXTT0=
EXTT1=
EXTT2=
EXTT3=
EXTT4=
EXTT5=
EXTT6=
EXTT7=
EXTT8=
EXTT9=
EXTT10=
EXTT11=
PLAYORDER=
